<svg xmlns="http://www.w3.org/2000/svg" width="280" height="280" viewBox="0 0 280 280" role="img">
<title>layered-optimized</title>
<rect width="100%" height="100%" fill="#fbfaf7"/>
<g stroke="#e5e0d8" stroke-width="1">
<line x1="32" y1="32" x2="32" y2="248"/>
<line x1="68" y1="32" x2="68" y2="248"/>
<line x1="104" y1="32" x2="104" y2="248"/>
<line x1="140" y1="32" x2="140" y2="248"/>
<line x1="176" y1="32" x2="176" y2="248"/>
<line x1="212" y1="32" x2="212" y2="248"/>
<line x1="248" y1="32" x2="248" y2="248"/>
<line x1="32" y1="248" x2="248" y2="248"/>
<line x1="32" y1="212" x2="248" y2="212"/>
<line x1="32" y1="176" x2="248" y2="176"/>
<line x1="32" y1="140" x2="248" y2="140"/>
<line x1="32" y1="104" x2="248" y2="104"/>
<line x1="32" y1="68" x2="248" y2="68"/>
<line x1="32" y1="32" x2="248" y2="32"/>
</g>
<line x1="32" y1="176" x2="68" y2="176" stroke="#276ef1" stroke-width="7" stroke-linecap="round" fill="none"/>
<line x1="68" y1="176" x2="104" y2="176" stroke="#276ef1" stroke-width="7" stroke-linecap="round" fill="none"/>
<line x1="104" y1="176" x2="140" y2="176" stroke="#276ef1" stroke-width="7" stroke-linecap="round" fill="none"/>
<line x1="140" y1="176" x2="176" y2="176" stroke="#276ef1" stroke-width="7" stroke-linecap="round" fill="none"/>
<line x1="176" y1="176" x2="176" y2="212" stroke="#276ef1" stroke-width="7" stroke-linecap="round" fill="none"/>
<line x1="176" y1="212" x2="176" y2="248" stroke="#276ef1" stroke-width="7" stroke-linecap="round" fill="none"/>
<line x1="176" y1="248" x2="212" y2="248" stroke="#276ef1" stroke-width="7" stroke-linecap="round" fill="none"/>
<line x1="212" y1="248" x2="248" y2="248" stroke="#276ef1" stroke-width="7" stroke-linecap="round" fill="none"/>
<line x1="248" y1="248" x2="248" y2="212" stroke="#276ef1" stroke-width="7" stroke-linecap="round" fill="none"/>
<line x1="248" y1="212" x2="248" y2="176" stroke="#276ef1" stroke-width="7" stroke-linecap="round" fill="none"/>
<line x1="248" y1="176" x2="248" y2="140" stroke="#276ef1" stroke-width="7" stroke-linecap="round" fill="none"/>
<line x1="248" y1="140" x2="248" y2="104" stroke="#276ef1" stroke-width="7" stroke-linecap="round" fill="none"/>
<line x1="248" y1="104" x2="248" y2="68" stroke="#276ef1" stroke-width="7" stroke-linecap="round" fill="none"/>
<line x1="248" y1="68" x2="248" y2="32" stroke="#276ef1" stroke-width="7" stroke-linecap="round" fill="none"/>
<line x1="248" y1="32" x2="212" y2="32" stroke="#276ef1" stroke-width="7" stroke-linecap="round" fill="none"/>
<line x1="212" y1="32" x2="176" y2="32" stroke="#276ef1" stroke-width="7" stroke-linecap="round" fill="none"/>
<line x1="176" y1="32" x2="140" y2="32" stroke="#276ef1" stroke-width="7" stroke-linecap="round" fill="none"/>
<line x1="140" y1="32" x2="104" y2="32" stroke="#276ef1" stroke-width="7" stroke-linecap="round" fill="none"/>
<line x1="104" y1="32" x2="68" y2="32" stroke="#276ef1" stroke-width="7" stroke-linecap="round" fill="none"/>
<line x1="68" y1="32" x2="32" y2="32" stroke="#276ef1" stroke-width="7" stroke-linecap="round" fill="none"/>
<line x1="32" y1="32" x2="32" y2="68" stroke="#276ef1" stroke-width="7" stroke-linecap="round" fill="none"/>
<line x1="32" y1="68" x2="32" y2="104" stroke="#276ef1" stroke-width="7" stroke-linecap="round" fill="none"/>
<line x1="32" y1="104" x2="32" y2="140" stroke="#276ef1" stroke-width="7" stroke-linecap="round" fill="none"/>
<line x1="32" y1="140" x2="32" y2="176" stroke="#276ef1" stroke-width="7" stroke-linecap="round" fill="none"/>
<circle cx="32" cy="176" r="5" fill="#276ef1" stroke="#1f1f1f" stroke-width="1"/>
<circle cx="32" cy="176" r="9" fill="none" stroke="#111" stroke-width="2"/>
<circle cx="68" cy="176" r="5" fill="#276ef1" stroke="#1f1f1f" stroke-width="1"/>
<circle cx="104" cy="176" r="5" fill="#276ef1" stroke="#1f1f1f" stroke-width="1"/>
<circle cx="140" cy="176" r="5" fill="#276ef1" stroke="#1f1f1f" stroke-width="1"/>
<circle cx="176" cy="176" r="5" fill="#276ef1" stroke="#1f1f1f" stroke-width="1"/>
<circle cx="176" cy="212" r="5" fill="#276ef1" stroke="#1f1f1f" stroke-width="1"/>
<circle cx="176" cy="248" r="5" fill="#276ef1" stroke="#1f1f1f" stroke-width="1"/>
<circle cx="212" cy="248" r="5" fill="#276ef1" stroke="#1f1f1f" stroke-width="1"/>
<circle cx="248" cy="248" r="5" fill="#276ef1" stroke="#1f1f1f" stroke-width="1"/>
<circle cx="248" cy="212" r="5" fill="#276ef1" stroke="#1f1f1f" stroke-width="1"/>
<circle cx="248" cy="176" r="5" fill="#276ef1" stroke="#1f1f1f" stroke-width="1"/>
<circle cx="248" cy="140" r="5" fill="#276ef1" stroke="#1f1f1f" stroke-width="1"/>
<circle cx="248" cy="104" r="5" fill="#276ef1" stroke="#1f1f1f" stroke-width="1"/>
<circle cx="248" cy="68" r="5" fill="#276ef1" stroke="#1f1f1f" stroke-width="1"/>
<circle cx="248" cy="32" r="5" fill="#276ef1" stroke="#1f1f1f" stroke-width="1"/>
<circle cx="212" cy="32" r="5" fill="#276ef1" stroke="#1f1f1f" stroke-width="1"/>
<circle cx="176" cy="32" r="5" fill="#276ef1" stroke="#1f1f1f" stroke-width="1"/>
<circle cx="140" cy="32" r="5" fill="#276ef1" stroke="#1f1f1f" stroke-width="1"/>
<circle cx="104" cy="32" r="5" fill="#276ef1" stroke="#1f1f1f" stroke-width="1"/>
<circle cx="68" cy="32" r="5" fill="#276ef1" stroke="#1f1f1f" stroke-width="1"/>
<circle cx="32" cy="32" r="5" fill="#276ef1" stroke="#1f1f1f" stroke-width="1"/>
<circle cx="32" cy="68" r="5" fill="#276ef1" stroke="#1f1f1f" stroke-width="1"/>
<circle cx="32" cy="104" r="5" fill="#276ef1" stroke="#1f1f1f" stroke-width="1"/>
<circle cx="32" cy="140" r="5" fill="#276ef1" stroke="#1f1f1f" stroke-width="1"/>
</svg>
